<svg width="92" height="92" viewBox="0 0 102 100" fill="none" xmlns="http://www.w3.org/2000/svg">
<g filter="url(#filter0_d)">
<path d="M50.5803 5.77584C44.6236 6.29699 40.0962 11.5571 40.6169 17.5145L43.2968 48.1482L33.162 52.8735C29.7678 46.9757 22.3668 44.5552 16.0846 47.485C9.45122 50.5794 6.58174 58.4628 9.67428 65.0971C12.768 71.7299 20.6523 74.6013 27.2873 71.5076C31.8398 69.3846 34.6184 65.0039 34.9143 60.3216L47.3265 54.5333L48.5196 68.1754C44.6134 70.7733 42.209 75.3698 42.6457 80.3736C43.2841 87.6662 49.7121 93.0583 57.003 92.4212C64.2956 91.7827 69.6885 85.3552 69.0511 78.0643C68.447 71.1594 62.6501 65.9605 55.8458 65.969L54.8707 54.8294L82.7388 41.8338C88.1593 39.3065 90.4502 32.7552 87.9231 27.3359L53.8559 43.2238L50.5803 5.77584ZM27.6756 62.9207C25.7785 66.2067 21.5764 67.3326 18.2905 65.4355C15.0045 63.5383 13.8787 59.3362 15.7758 56.0503C17.6733 52.7636 21.8749 51.6385 25.1609 53.5356C28.4468 55.4327 29.5732 59.634 27.6756 62.9207ZM61.7886 82.6158C59.8914 85.9018 55.6894 87.0277 52.4034 85.1306C49.1175 83.2334 47.9916 79.0314 49.8887 75.7455C51.7863 72.4588 55.9879 71.3336 59.2738 73.2307C62.5597 75.1278 63.6861 79.3291 61.7886 82.6158Z" fill="#99BAED"/>
</g>
<defs>
<filter id="filter0_d" x="-0.419373" y="0.0672607" width="102.231" height="105.258" filterUnits="userSpaceOnUse" color-interpolation-filters="sRGB">
<feFlood flood-opacity="0" result="BackgroundImageFix"/>
<feColorMatrix in="SourceAlpha" type="matrix" values="0 0 0 0 0 0 0 0 0 0 0 0 0 0 0 0 0 0 127 0"/>
<feOffset dy="4"/>
<feGaussianBlur stdDeviation="2"/>
<feColorMatrix type="matrix" values="0 0 0 0 0 0 0 0 0 0 0 0 0 0 0 0 0 0 0.25 0"/>
<feBlend mode="normal" in2="BackgroundImageFix" result="effect1_dropShadow"/>
<feBlend mode="normal" in="SourceGraphic" in2="effect1_dropShadow" result="shape"/>
</filter>
</defs>
</svg>
