<svg aria-hidden="true" style="position: absolute; width: 0; height: 0; overflow: hidden;" version="1.1" xmlns="http://www.w3.org/2000/svg" xmlns:xlink="http://www.w3.org/1999/xlink">
<defs>
<symbol id="cleanser" viewBox="0 0 32 32">
<path  d="M3.75 0v3.75h-0.938v1.875h7.5v-1.875h-0.938v-1.875h4.299l1.6 1.6 1.326-1.326-2.15-2.15h-10.701z"></path>
<path  d="M22.563 25.376c0 0.516 0.42 0.937 0.938 0.937s0.937-0.42 0.937-0.938c-0.008-0.287-0.398-1.104-0.937-2.012-0.54 0.91-0.93 1.727-0.938 2.013z"></path>
<path  d="M28.25 15.063v-1.875h-9.5v1.875h-1.517c-1.61 3.253-2.233 6.197-2.233 8.438 0 2.238 0.621 5.244 2.233 8.5h12.534c1.61-3.253 2.233-6.26 2.233-8.5 0-2.238-0.621-5.181-2.233-8.438h-1.517zM23.5 28.188c-1.551 0-2.813-1.262-2.813-2.813 0-1.198 1.427-3.394 2.041-4.283l0.772-1.117 0.772 1.117c0.613 0.889 2.041 3.084 2.041 4.283 0 1.551-1.262 2.813-2.812 2.813z"></path>
<path  d="M18.75 5.625h9.5v5.687h-9.5v-5.687z"></path>
<path  d="M5.625 21.626c0 0.516 0.42 0.937 0.938 0.937s0.938-0.42 0.938-0.938c-0.008-0.288-0.398-1.104-0.938-2.012-0.54 0.91-0.93 1.727-0.938 2.013z"></path>
<path  d="M0 28.188h13.125v3.813h-13.125v-3.813z"></path>
<path  d="M0 7.5h13.125v3.812h-13.125v-3.812z"></path>
<path  d="M13.125 13.188h-13.125v13.125h13.125v-13.125zM6.563 24.437c-1.551 0-2.813-1.262-2.813-2.812 0-1.198 1.427-3.394 2.041-4.283l0.772-1.117 0.772 1.117c0.613 0.889 2.041 3.084 2.041 4.283 0 1.551-1.262 2.812-2.812 2.812z"></path>
</symbol>
<symbol id="razor" viewBox="0 0 97 97">
<path d="M46.1062 38.4172L46.1062 33.8364L50.687 33.8364L50.687 38.4172L46.1062 38.4172Z" />
<path d="M46.7775 62.0411C46.3451 62.4735 46.1066 63.0487 46.1066 63.6602L46.107 72.2513C46.1066 72.8631 46.3451 73.4384 46.7775 73.8708C47.2102 74.3035 47.7851 74.5417 48.397 74.5413C49.0084 74.5413 49.5833 74.3032 50.0161 73.8704C50.4485 73.438 50.687 72.8628 50.687 72.2513L50.6874 63.6602C50.6874 63.0487 50.4492 62.4731 50.0168 62.0407C49.5841 61.608 49.0092 61.3698 48.397 61.3698C47.7851 61.3702 47.2102 61.6083 46.7775 62.0411Z" />
<path d="M54.6977 40.4214C54.6977 40.9752 54.4732 41.4767 54.1102 41.8396C53.7476 42.2022 53.2462 42.4267 52.6923 42.4267L44.1012 42.4271C43.5695 42.4271 43.0592 42.2159 42.6834 41.84C42.3071 41.4637 42.0959 40.9534 42.0959 40.4217L42.0963 33.8356L30.2839 33.836L30.2836 71.1775C30.2836 76.0161 32.1678 80.5647 35.5888 83.9857C38.5327 86.9297 42.3119 88.7341 46.3916 89.1806L46.3916 93.9578C46.3916 95.0655 47.2892 95.9631 48.397 95.9631C48.9508 95.9631 49.4519 95.739 49.8149 95.376C50.1778 95.0131 50.4023 94.5116 50.4019 93.9582L50.4019 89.1809C54.482 88.7342 58.2612 86.9297 61.2052 83.9857C64.6262 80.5647 66.51 76.0157 66.5104 71.1775L66.5104 33.8356L54.6977 33.8356V40.4214ZM54.698 63.6602L54.6977 72.2513C54.6973 73.9339 54.0423 75.5165 52.8522 76.7065C51.6622 77.8966 50.08 78.552 48.397 78.552C46.714 78.552 45.1318 77.8966 43.9417 76.7065C42.7517 75.5165 42.0963 73.9343 42.0963 72.2513L42.0963 63.6606C42.0963 61.9776 42.7517 60.3954 43.9417 59.2053C45.1322 58.0149 46.7143 57.3595 48.3973 57.3595C50.08 57.3599 51.6625 58.0149 52.8526 59.205C54.0423 60.3954 54.6977 61.9776 54.698 63.6602Z" />
<path d="M64.505 16.9389C63.3973 16.9389 62.4997 17.8365 62.4997 18.9443V21.2343H60.0672V18.9443C60.0672 17.8365 59.1695 16.9389 58.0622 16.9385C56.9548 16.9389 56.0572 17.8365 56.0568 18.9439L56.0565 21.2343L53.6239 21.2343V18.9443C53.6239 17.8365 52.7263 16.9389 51.619 16.9385C50.5116 16.9389 49.614 17.8365 49.6136 18.9439L49.6132 21.2343L47.1807 21.2343V18.9435C47.1807 17.8365 46.2827 16.9385 45.1757 16.9385C44.068 16.9385 43.1704 17.8362 43.1704 18.9439L43.17 21.2343H40.7375L40.7371 18.9439C40.7375 17.8365 39.8395 16.9385 38.7321 16.9389C37.6244 16.9389 36.7268 17.8365 36.7268 18.9443V21.2343L34.2939 21.2346L34.2935 18.9443C34.2939 17.8369 33.3959 16.9389 32.2885 16.9393C31.1808 16.9393 30.2832 17.8369 30.2832 18.9446L30.2832 23.2396C30.2836 23.24 30.2836 23.24 30.2836 23.2407V29.8257L66.5104 29.825L66.51 23.2404C66.51 23.2404 66.5104 23.24 66.5104 23.2392L66.51 18.9439C66.5104 17.8365 65.6124 16.9385 64.505 16.9389Z" />
</symbol>
<symbol id="scissors" viewBox="0 0 28 32">
<path  d="M4.795 0.475c-2.057 1.44-2.599 4.305-1.159 6.362l7.408 10.58-2.694 3.847c-2.473-1.432-5.673-0.759-7.343 1.626-1.763 2.519-1.151 5.989 1.367 7.752s5.989 1.152 7.753-1.367c1.21-1.728 1.301-3.905 0.425-5.671l3.299-4.712 3.299 4.712c-0.875 1.765-0.785 3.942 0.425 5.671 1.764 2.518 5.234 3.13 7.752 1.367s3.13-5.234 1.367-7.752c-1.67-2.385-4.87-3.058-7.343-1.626l-2.694-3.847 7.407-10.579c1.441-2.058 0.898-4.922-1.159-6.362l-9.055 12.933-9.056-12.933zM8.465 26.071c0 1.594-1.292 2.886-2.886 2.886s-2.886-1.292-2.886-2.886c0-1.594 1.292-2.886 2.886-2.886s2.886 1.292 2.886 2.886zM25.009 26.071c0 1.594-1.292 2.886-2.886 2.886s-2.886-1.292-2.886-2.886c0-1.594 1.292-2.886 2.886-2.886s2.886 1.292 2.886 2.886z"></path>
</symbol>
</defs>
</svg>
